<?xml version="1.0" standalone="no"?>
<!DOCTYPE svg PUBLIC "-//W3C//DTD SVG 20010904//EN"
 "http://www.w3.org/TR/2001/REC-SVG-20010904/DTD/svg10.dtd">
<svg version="1.0" xmlns="http://www.w3.org/2000/svg"
 width="1280.000000pt" height="791.000000pt" viewBox="0 0 1280.000000 791.000000"
 preserveAspectRatio="xMidYMid meet">
<metadata>
Created by potrace 1.15, written by Peter Selinger 2001-2017
</metadata>
<g transform="translate(0.000000,791.000000) scale(0.100000,-0.100000)"
fill="#000000" stroke="none">
<path d="M5505 7322 c-38 -21 -284 -160 -545 -309 -261 -149 -686 -391 -945
-538 -258 -147 -495 -285 -525 -308 -178 -133 -408 -406 -491 -580 -46 -97
-36 -186 37 -352 20 -44 41 -92 46 -106 11 -24 -43 -91 -1066 -1318 -592 -711
-1079 -1298 -1082 -1306 -3 -7 -1 -23 5 -34 10 -18 0 -33 -93 -133 l-104 -113
-51 3 c-73 5 -125 -24 -238 -132 -87 -82 -221 -248 -286 -352 -25 -41 -26 -43
-11 -103 74 -318 382 -621 709 -700 152 -36 131 -41 252 58 245 201 385 383
369 481 -3 21 -8 45 -12 53 -3 9 37 59 108 136 111 121 113 122 149 116 22 -4
40 -2 43 4 4 6 89 -51 204 -137 641 -482 1286 -934 1680 -1177 141 -87 143
-88 181 -77 134 41 524 440 1107 1132 382 453 803 977 1047 1300 19 25 76 125
127 223 l92 178 160 157 c358 352 586 647 650 842 17 55 22 101 28 305 7 234
8 247 58 505 29 146 54 274 56 285 3 11 39 45 81 74 144 103 225 207 225 289
0 12 5 22 11 22 6 0 105 57 221 126 224 135 216 127 192 187 -4 12 10 20 63
36 665 195 1302 341 1753 401 249 33 441 43 602 30 378 -30 929 -157 1603
-369 182 -57 191 -59 215 -44 53 35 121 117 154 186 46 96 60 176 53 290 -7
110 -13 134 -35 140 -10 2 -118 36 -242 75 -708 223 -1308 354 -1685 369 -489
18 -1399 -122 -2459 -379 -198 -48 -210 -50 -222 -33 -14 19 -66 19 -359 -1
l-90 -6 -18 38 c-52 111 -97 143 -212 151 -128 10 -327 -32 -530 -112 l-88
-34 -96 44 c-87 40 -100 50 -144 107 -203 265 -425 448 -543 448 -26 0 -63
-13 -109 -38z m-980 -3027 c154 -113 287 -213 297 -223 15 -16 172 -372 166
-377 -2 -1 -95 7 -208 17 -113 10 -227 17 -255 14 -60 -5 -192 -59 -261 -106
-95 -66 -189 -166 -252 -272 -24 -38 -44 -96 -384 -1108 -115 -344 -211 -626
-212 -628 -3 -2 -804 1049 -826 1085 -12 18 52 94 714 861 l727 841 97 50 c53
28 102 50 107 50 6 1 136 -92 290 -204z m293 -1111 l240 -86 -15 -44 c-8 -24
-16 -44 -18 -44 -2 0 -28 10 -59 21 -31 12 -59 19 -62 16 -4 -3 -35 -155 -70
-337 -34 -183 -65 -338 -68 -346 -5 -12 -563 -732 -590 -761 -12 -13 -412 -70
-422 -61 -3 3 112 361 256 796 292 883 274 843 392 901 101 51 134 46 416 -55z"/>
<path d="M12122 6058 c-40 -50 -131 -282 -167 -427 -93 -368 -22 -567 200
-565 99 0 169 44 211 132 23 48 31 211 14 307 -26 148 -121 395 -199 518 -32
49 -42 55 -59 35z"/>
</g>
</svg>
