<?xml version="1.0" standalone="no"?>
<!DOCTYPE svg PUBLIC "-//W3C//DTD SVG 20010904//EN"
 "http://www.w3.org/TR/2001/REC-SVG-20010904/DTD/svg10.dtd">
<svg version="1.0" xmlns="http://www.w3.org/2000/svg"
 width="1280.000000pt" height="797.000000pt" viewBox="0 0 1280.000000 797.000000"
 preserveAspectRatio="xMidYMid meet">
<g transform="translate(0.000000,797.000000) scale(0.100000,-0.100000)"
fill="#000000" stroke="none">
<path d="M2749 7571 l-29 -30 -263 -10 c-404 -17 -747 -46 -1151 -97 -194 -24
-499 -69 -542 -79 -30 -7 -49 -106 -49 -255 0 -176 47 -291 140 -345 l42 -25
459 34 c683 52 1093 76 1311 76 77 0 95 -3 110 -19 48 -50 103 -54 141 -11 25
29 30 30 110 30 79 0 86 -2 119 -30 44 -39 90 -40 124 -4 23 24 28 26 111 22
78 -3 90 -6 115 -29 43 -41 84 -46 121 -14 31 26 34 26 123 19 81 -6 95 -10
124 -35 59 -52 97 -57 142 -16 21 18 27 19 104 7 51 -7 92 -19 109 -32 29 -21
53 -24 106 -13 17 4 68 0 113 -9 71 -13 86 -20 115 -50 38 -40 76 -47 115 -20
22 16 29 15 103 -2 74 -16 82 -21 104 -55 39 -62 87 -76 134 -39 31 25 26 25
125 -5 80 -25 82 -26 94 -65 23 -77 99 -104 147 -53 l25 27 87 -29 c47 -17
138 -55 201 -86 129 -62 176 -104 186 -166 17 -103 28 -136 60 -167 65 -65
139 -80 221 -46 28 12 36 10 95 -19 96 -49 91 -41 83 -151 l-6 -97 28 -20 c16
-11 81 -45 145 -75 141 -67 223 -121 277 -183 72 -82 71 -66 65 -682 -3 -301
0 -676 5 -833 14 -371 27 -425 155 -638 69 -115 53 -108 174 -82 34 8 65 11
68 8 18 -18 89 -204 135 -353 97 -317 179 -501 564 -1250 19 -38 69 -140 110
-225 195 -406 375 -667 541 -785 170 -122 348 -152 580 -100 376 85 830 273
1573 651 210 107 386 193 391 190 4 -3 32 -42 61 -86 54 -82 69 -92 110 -70
15 8 24 6 37 -8 10 -10 135 -186 278 -390 l260 -373 38 6 c68 10 221 64 271
96 57 36 189 152 210 185 15 21 4 38 -264 403 -154 209 -280 386 -280 393 0 6
9 22 21 34 l20 22 -20 41 c-12 22 -182 282 -379 578 -480 719 -634 965 -817
1300 -145 266 -166 347 -125 482 48 158 3 383 -144 709 -109 243 -306 566
-483 792 -273 350 -432 597 -464 724 -11 43 -10 49 15 84 14 21 26 51 26 68 0
41 -51 124 -105 172 -141 124 -471 307 -830 459 -274 116 -418 149 -609 139
-136 -8 -156 -14 -284 -97 -138 -90 -182 -104 -322 -103 -90 0 -140 6 -230 28
-63 15 -149 30 -190 32 -89 6 -123 -10 -166 -78 -99 -156 -149 -228 -159 -228
-18 0 -92 57 -109 82 -7 13 -17 39 -20 58 -9 52 -40 96 -88 126 -85 54 -164
40 -215 -37 -14 -22 -31 -38 -37 -35 -6 2 -92 40 -191 83 -99 44 -224 97 -277
118 -55 21 -98 44 -98 51 0 34 -35 96 -61 109 -41 21 -57 19 -91 -15 -16 -16
-37 -30 -46 -30 -29 0 -162 52 -162 64 0 41 -24 89 -53 106 -46 29 -66 25
-107 -20 l-37 -40 -74 21 c-41 11 -78 24 -83 29 -5 5 -16 31 -25 57 -13 38
-23 52 -53 66 -33 16 -40 17 -66 3 -16 -8 -35 -29 -42 -46 -14 -35 -26 -36
-120 -12 l-65 17 -16 50 c-16 52 -62 95 -101 95 -25 0 -65 -41 -74 -74 -7 -31
-17 -32 -152 -11 -68 11 -100 21 -107 32 -47 79 -114 96 -160 42 l-26 -32 -90
10 c-87 10 -91 12 -128 52 -50 54 -96 57 -135 10 l-26 -31 -95 4 c-90 3 -95 4
-127 34 -18 18 -48 35 -65 39 -28 6 -37 2 -65 -26 l-33 -33 -100 3 c-81 2
-104 6 -120 21 -20 18 -67 40 -86 40 -6 0 -24 -13 -40 -29z m6660 -3750 c89
-28 138 -60 224 -150 182 -190 504 -678 862 -1305 79 -138 87 -118 -70 -198
-55 -28 -136 -73 -180 -101 -110 -68 -389 -263 -406 -283 -15 -19 -636 -434
-649 -434 -11 0 -17 62 -40 420 -30 452 -69 813 -101 935 -26 97 -82 189 -164
270 -118 118 -223 163 -469 199 -54 8 -101 17 -104 20 -3 3 6 23 20 44 40 60
69 121 99 210 15 45 37 95 48 111 12 16 21 34 21 40 0 32 465 208 620 234 74
13 231 6 289 -12z m-915 -997 c180 -45 225 -87 250 -236 38 -220 89 -774 108
-1176 11 -222 10 -257 -3 -280 -24 -44 -46 -39 -108 25 -58 60 -155 218 -383
623 -244 433 -348 632 -348 665 0 7 14 17 32 20 40 9 22 31 287 -338 118 -164
216 -296 218 -294 2 3 -66 166 -152 365 -85 198 -155 365 -155 372 0 7 12 26
27 44 36 42 81 140 89 193 4 27 11 43 20 43 8 0 61 -12 118 -26z"/>
<path d="M721 6467 c-71 -87 -300 -805 -341 -1074 -25 -161 47 -308 185 -381
67 -36 186 -38 257 -5 100 46 179 151 197 262 31 197 -198 1211 -274 1211 -7
0 -17 -6 -24 -13z"/>
</g>
</svg>
